<?xml version="1.0" encoding="iso-8859-1"?>
<!-- Uploaded to: SVG Repo, www.svgrepo.com, Generator: SVG Repo Mixer Tools -->
<svg fill="#000000" height="800px" width="800px" version="1.1" id="Capa_1" xmlns="http://www.w3.org/2000/svg" xmlns:xlink="http://www.w3.org/1999/xlink" 
	 viewBox="0 0 490 490" xml:space="preserve">
<g>
	<path d="M490,286.578l-69.973-115.157h-73.262v133.68h83.899v-20.417h-63.482v-92.847h41.361l61.041,100.453v83.825h-24.516
		c-4.761-23.899-25.892-41.969-51.169-41.969c-25.278,0-46.405,18.07-51.165,41.969h-17.857V171.421h-30.022v-60.044h-92.898
		c-17.273-35.415-53.647-59.874-95.632-59.874C47.697,51.502,0,99.2,0,157.833c0,46.294,29.738,85.763,71.109,100.328v138.371
		h44.929c4.76,23.899,25.892,41.966,51.169,41.966c25.278,0,46.408-18.067,51.169-41.966h124.359
		c4.76,23.899,25.887,41.966,51.165,41.966c25.277,0,46.408-18.067,51.169-41.966H490V286.578z M20.417,157.833
		c0-47.373,38.541-85.913,85.908-85.913c47.374,0,85.914,38.54,85.914,85.913s-38.541,85.913-85.914,85.913
		C58.957,243.746,20.417,205.205,20.417,157.833z M167.206,418.081c-17.516,0-31.761-14.246-31.761-31.757
		c0-17.516,14.246-31.761,31.761-31.761c17.515,0,31.761,14.246,31.761,31.761C198.967,403.835,184.722,418.081,167.206,418.081z
		 M304.46,376.115h-86.085c-4.76-23.899-25.891-41.969-51.168-41.969c-25.277,0-46.408,18.07-51.169,41.969H91.526V263.128
		c4.838,0.677,9.777,1.035,14.799,1.035c58.633,0,106.331-47.696,106.331-106.33c0-8.981-1.124-17.704-3.23-26.039h65.013v60.044
		h30.022V376.115z M393.899,418.081c-17.511,0-31.757-14.246-31.757-31.757c0-17.516,14.246-31.761,31.757-31.761
		c17.516,0,31.761,14.246,31.761,31.761C425.66,403.835,411.414,418.081,393.899,418.081z"/>
	<polygon points="144.597,147.624 116.533,147.624 116.533,87.875 96.117,87.875 96.117,168.041 144.597,168.041 	"/>
</g>
</svg>